<?xml version="1.0" encoding="utf-8"?>
<!-- Uploaded to: SVG Repo, www.svgrepo.com, Generator: SVG Repo Mixer Tools -->
<svg width="800px" height="800px" viewBox="-139.69 0 442.417 442.417" xmlns="http://www.w3.org/2000/svg"><defs><style>.a{fill:#957f6e;}.b{fill:#ffffff;}.c{fill:#211715;}.d{fill:#5394cf;}.e{fill:#d9d9d9;}.f{fill:#645d5c;}</style></defs><path class="a" d="M78.761,92.234c-5.891-.756-12.187-3.991-14.434-8.079C61.374,78.78,61.241,72,62.57,66.032S66.151,54.278,66.843,48.2c.352-3.085.3-6.209.773-9.277.472-3.04,1.442-28.4,20.359-33.881,4.791-1.7,9.522-3.42,14.6-3.061A44.593,44.593,0,0,1,111.1,3.056c6.209,1.915,11.083,4.528,15.333,9.382a37.417,37.417,0,0,1,6.715,11.1c4.6,12.188,6.883,25.51,7.683,38.488a44.354,44.354,0,0,1-.674,12.869c-.985,4.2-3.09,8.722-6.5,11.416-5.092,4.02-7.428,4.945-13.948,5.171Z"/><path class="b" d="M126.966,408.294a3.875,3.875,0,0,0,1.536-1.807,29.09,29.09,0,0,1-1.84-6.883,137.45,137.45,0,0,1-17.993.309l-.03,4.366a22.691,22.691,0,0,0,14.265,4.932A7.936,7.936,0,0,0,126.966,408.294Z"/><path class="b" d="M79.772,399.735a29.085,29.085,0,0,1-1.934,7.031,3.933,3.933,0,0,0,1.418,1.528,7.93,7.93,0,0,0,4.061.917,22.688,22.688,0,0,0,14.5-5.119l-.029-4.279A137.281,137.281,0,0,1,79.772,399.735Z"/><path class="c" d="M77.84,395.809a27.214,27.214,0,0,1-3.009,12.215,2.046,2.046,0,0,0,.717,2.736,2.022,2.022,0,0,0,2.737-.717,31.594,31.594,0,0,0,3.555-14.234,2,2,0,0,0-4,0Z"/><path class="c" d="M95.531,396.8l.081,11.828a2,2,0,0,0,4,0L99.531,396.8a2,2,0,0,0-4,0Z"/><path class="c" d="M124.382,395.809a31.594,31.594,0,0,0,3.555,14.234,2,2,0,0,0,3.454-2.019,27.2,27.2,0,0,1-3.009-12.215,2,2,0,0,0-4,0Z"/><path class="c" d="M106.691,396.8l-.081,11.828a2,2,0,0,0,4,0l.081-11.828a2,2,0,0,0-4,0Z"/><path class="b" d="M102.284,191.886H70.1c-1.4,4.843-3.153,13.085-4.292,19.536-5.485,31.082-.182,62.81,2.2,93.229,2.469,31.549,3.977,63.1,6.445,94.647a143.091,143.091,0,0,0,27.822.2,143.262,143.262,0,0,0,27.839-.2c2.468-31.549,3.976-63.1,6.444-94.647,2.38-30.419,7.683-62.147,2.2-93.229-1.139-6.45-2.891-14.691-4.292-19.536H102.284Z"/><path class="c" d="M101.111,249.357c-.428,4.682-.377,9.427-.413,14.122-.053,6.863-.025,13.726.016,20.589.059,9.672.164,19.343.15,29.014q-.026,16.1-.063,32.2-.033,18.056-.035,36.112,0,6.5.031,13c.011,2.072-.068,4.179.083,6.247a2.174,2.174,0,0,0,.611,1.629,2.064,2.064,0,0,0,2.829,0,2.015,2.015,0,0,0,0-2.829,2.191,2.191,0,0,1,.565,1.281,1.964,1.964,0,0,0-.015-.3c-.005-.332-.019-.664-.025-1-.021-1.141-.03-2.282-.038-3.424-.029-4.009-.034-8.018-.039-12.028q-.02-17.533.027-35.068.028-16.645.064-33.29c.016-8.94-.049-17.878-.113-26.817-.09-12.35-.405-24.767.208-37.107.039-.781.086-1.561.157-2.34a2.016,2.016,0,0,0-2-2,2.043,2.043,0,0,0-2,2Z"/><path class="c" d="M68.115,191.547a178.881,178.881,0,0,0-6.268,36.266c-.933,13.689-.254,27.429.882,41.084,1.13,13.588,2.638,27.138,3.66,40.735,1.055,14.024,1.941,28.059,2.825,42.094,1,15.863,2,31.726,3.238,47.572a2.068,2.068,0,0,0,2,2,154.326,154.326,0,0,0,26.485.308c2.551-.191,2.572-4.193,0-4a154.326,154.326,0,0,1-26.485-.308l2,2c-2.189-28.041-3.632-56.133-5.659-84.186-.981-13.584-2.348-27.122-3.581-40.684s-2.164-27.189-1.667-40.813a174.922,174.922,0,0,1,6.427-41c.7-2.481-3.157-3.54-3.857-1.063Z"/><path class="c" d="M136.826,211.954c4.164,23.837,1.94,48.154-.381,72.059-2.373,24.442-3.906,48.936-5.456,73.441-.882,13.953-1.788,27.906-2.876,41.844l2-2a154.326,154.326,0,0,1-26.485.308c-2.568-.192-2.555,3.809,0,4a154.326,154.326,0,0,0,26.485-.308,2.066,2.066,0,0,0,2-2c1.943-24.888,3.3-49.816,5-74.721.836-12.263,1.779-24.511,2.966-36.745,1.164-12,2.375-24.016,2.861-36.073a192.246,192.246,0,0,0-2.252-40.868,2.016,2.016,0,0,0-2.46-1.4,2.044,2.044,0,0,0-1.4,2.46Z"/><path class="d" d="M83.972,160.19l-.137,29.262c-.281,5.976-.556,11.15-.683,15.059-.054.516-.019,2.6-.414,2.592-4.689-.066-13.527-2.208-17.508-4.686,0-16.384,3.382-26.308,3.152-36.8-5.442-9.237-23.005-34.98-23.005-34.98.222-3.762,5.415-13.553,5.863-14.638l.884-1.461c2.24-3.7,5.827-6.372,9.448-8.744A102.62,102.62,0,0,1,81.326,95.228c.236,4.152,1.859,21.034,2.755,41.511Z"/><path class="b" d="M117.275,99.8a45.608,45.608,0,0,0,5.808-3.6c-.665,6.737-4.711,30.3-5.18,55.1-.27,14.281-.314,29.18-.2,40.585H83.719c.038-.791.077-1.6.116-2.434l.3-51.849c-.878-20.068-2.51-37.519-2.8-42.1,7.983,7.774,13.788,7.75,21.345,7.75A30.544,30.544,0,0,0,117.275,99.8Z"/><path class="c" d="M83.72,193.887h34c2.574,0,2.578-4,0-4h-34c-2.574,0-2.578,4,0,4Z"/><path class="b" d="M68.285,59.656c.058.124.118.248.179.371a10.894,10.894,0,0,0,2.819,3.7,7.211,7.211,0,0,0,3.361,1.515l1.1.169A29.15,29.15,0,0,0,81.3,76.26a26.4,26.4,0,0,0,6.769,5.907,35.219,35.219,0,0,1-.651,6.149c-.381,2.176-.262,4.122-3.287,5.214-.2.073-1.532.755-2.265.981l-1.174.362.656.638c7.979,7.765,13.782,7.741,21.336,7.741,7.438,0,13.572-2.012,20.99-7.484-.519-.25-.882-.421-.882-.421-1.53-.72-3.48-1.74-3.68-1.82-3.02-1.09-2.9-3.04-3.28-5.21a35.382,35.382,0,0,1-.65-5.256c4.708-2.132,8.786-7.052,11.277-10.885,2.316-10.016.69-20.43-3.683-29.7a35.142,35.142,0,0,0-9.609-12.613c-4.184-3.334-9.389-7.08-15.563-5.469-1.736,2.085-20.385,20.14-22.774,22.007l-1.411,1.1a4.312,4.312,0,0,0-3.192-.808,4.045,4.045,0,0,0-2.91,1.935,5.7,5.7,0,0,0-.6,2.3A17.124,17.124,0,0,0,68.285,59.656Z"/><path class="d" d="M138.93,202.269c-3.981,2.478-15.88,4.768-20.569,4.834-.4.006-.36-2.076-.414-2.592-.354-10.881-.432-32.684-.044-53.21.492-26.025,4.923-50.688,5.244-55.993.5.284.871.487.871.487,9.677,5.344,20.975,12.738,26.29,22.479,6.355,12.365,9.553,32.091,10.41,40.031a58.923,58.923,0,0,1-.088,13.919c-2.289,11.788-15.484,8.952-19.474,8.817a36.844,36.844,0,0,1-4.29-.546c.526,3.432,2.064,14.51,2.064,21.774"/><path class="c" d="M113.18,83.067a43.51,43.51,0,0,0,.7,5.664,13.511,13.511,0,0,0,.926,3.722,5.038,5.038,0,0,0,1.269,1.615,6.6,6.6,0,0,0,1.146.8c.164.087.332.163.5.238.22.095.44.187.662.276l-.256-.116a8.124,8.124,0,0,0,1.391.7c.749.378,1.5.751,2.26,1.11A2,2,0,1,0,123.8,93.62c-1.183-.559-2.337-1.177-3.517-1.743-.049-.024-.1-.048-.148-.07.328.151-.891-.369-.626-.256.2.084-.229-.116-.267-.136-.148-.079-.286-.173-.431-.258-.382-.223.188.221-.073-.061a3.968,3.968,0,0,0-.292-.3c.306.261.109.154,0-.022-.068-.11-.123-.225-.185-.338-.182-.336.115.4.01,0-.033-.125-.078-.246-.111-.37-.062-.233-.11-.47-.152-.707-.094-.524-.159-1.052-.248-1.577-.077-.447-.157-.894-.231-1.342q-.051-.31-.1-.621c0-.01-.092-.651-.042-.27-.109-.825-.173-1.654-.207-2.485a2,2,0,0,0-4,0Z"/><path class="c" d="M86.07,82.178c-.015.794-.05,1.586-.122,2.377q-.054.6-.132,1.207c.037-.286-.011.069-.027.18-.025.173-.052.346-.079.519-.185,1.172-.312,2.4-.608,3.547-.027.1-.055.208-.087.311-.134.424-.059.007.022,0-.016,0-.331.582-.347.617-.087.185.276-.269.016-.038-.105.093-.208.2-.311.3.248-.231.077-.057-.1.053-.122.076-.248.146-.376.211-.1.053-.378.172-.129.071-.26.105-.426.163-.712.291-.165.074-.329.152-.493.229-.254.12-.508.236-.763.353-.49.223.376-.133-.1.043-.128.047-.256.1-.386.137A2,2,0,0,0,82.4,96.439a18.412,18.412,0,0,0,2.082-.876c.133-.063.267-.124.4-.189.372-.184-.152.151-.217.085.095.1,1.137-.469,1.358-.588a5.9,5.9,0,0,0,2.834-3.428,24.252,24.252,0,0,0,.681-3.706,39.567,39.567,0,0,0,.537-5.559,2,2,0,0,0-4,0Z"/><path class="c" d="M79.932,96.925c4.636,4.463,9.888,7.481,16.349,8.125,5.952.594,12.309.346,17.955-1.748a43.685,43.685,0,0,0,10.791-6.064,2.062,2.062,0,0,0,.718-2.736,2.016,2.016,0,0,0-2.737-.718,38.765,38.765,0,0,1-11.1,6.1,33.979,33.979,0,0,1-10.721,1.365,30.309,30.309,0,0,1-8.934-1.02A24.463,24.463,0,0,1,82.76,94.1c-1.855-1.786-4.687,1.039-2.828,2.828Z"/><path class="c" d="M135.121,182.219a144.161,144.161,0,0,1,1.809,20.048l.991-1.727c-2.807,1.7-6.349,2.421-9.541,3.122a52.208,52.208,0,0,1-10.02,1.445l1.009.273-.082-.035.717.717c.247.354.018.16.032.051,0-.022-.028-.4-.035-.521-.021-.361-.036-.723-.051-1.085-.04-.993-.06-1.987-.084-2.981q-.087-3.591-.128-7.183-.114-9.012-.078-18.026c.006-2.574-3.994-2.578-4,0-.016,6.654,0,13.308.105,19.961.037,2.461.085,4.922.159,7.382.057,1.913-.23,5.3,2.436,5.447a29.8,29.8,0,0,0,6.009-.635c2.482-.385,4.95-.882,7.386-1.5a41.05,41.05,0,0,0,6.611-2.175,4.743,4.743,0,0,0,2.291-1.523c.659-1.127.238-3.308.174-4.572-.294-5.874-1.013-11.732-1.852-17.55a2.013,2.013,0,0,0-2.461-1.4,2.052,2.052,0,0,0-1.4,2.46Z"/><path class="c" d="M119.88,152.227c.366-17.023,2.277-33.876,4.539-50.735.276-2.062.6-4.136.731-6.215.157-2.571-3.844-2.562-4,0-.294,4.825-1.181,9.451-1.807,14.265-1.107,8.517-2.051,17.056-2.677,25.623-.415,5.681-.663,11.367-.786,17.062-.055,2.575,3.945,2.575,4,0Z"/><path class="c" d="M63.01,127.28a236.651,236.651,0,0,0,1.72,23.786q.609,5.892,1.313,11.774a47.2,47.2,0,0,1-.082,10.887c-1.012,9.264-2.653,18.371-2.727,27.724a2.891,2.891,0,0,0,1.666,3.088,26.147,26.147,0,0,0,2.788,1.275,45.537,45.537,0,0,0,6.2,1.957,52.4,52.4,0,0,0,6.3,1.147c1.94.23,4.215.556,4.75-1.88a28.78,28.78,0,0,0,.3-4.8c.09-2.065.191-4.129.289-6.194.212-4.478.443-8.957.538-13.439.055-2.575-3.945-2.575-4,0-.095,4.482-.326,8.961-.538,13.439-.1,2.065-.2,4.129-.289,6.194-.031.7-.055,1.406-.086,2.109-.016.371-.031.742-.051,1.113a5.772,5.772,0,0,0-.045.677s-.245.316.034-.076l1.2-.919c.426-.174-.426-.07-.617-.083-.29-.019-.58-.045-.87-.073-.678-.068-1.35-.164-2.021-.277-1.524-.256-3.036-.584-4.532-.972a29.63,29.63,0,0,1-8.011-3.046l.991,1.727a138.157,138.157,0,0,1,1.312-18.049c.64-4.79,1.453-9.572,1.746-14.4.258-4.242-.4-8.353-.874-12.56-.566-5.042-1.088-10.089-1.531-15.143-.436-4.978-.863-9.983-.873-14.984-.005-2.574-4.005-2.579-4,0Z"/><path class="c" d="M79.329,95.273c.289,4.893.767,9.779,1.133,14.667.669,8.925,1.225,17.858,1.619,26.8.113,2.564,4.114,2.578,4,0-.394-8.941-.95-17.874-1.619-26.8-.366-4.888-.844-9.774-1.133-14.667-.152-2.559-4.153-2.576-4,0Z"/><path class="c" d="M80.691,93.344a102.627,102.627,0,0,0-23.31,12.936,26.694,26.694,0,0,0-7.891,8.766c-1.051,2-2,4.071-2.931,6.124-1.348,2.967-2.929,6.171-3.182,9.469-.2,2.567,3.8,2.555,4,0,.024-.311-.05.151.038-.3q.074-.375.166-.745c.166-.658.377-1.305.6-1.945.466-1.327,1.009-2.624,1.582-3.907.948-2.121,1.972-4.208,3-6.291,3.257-6.6,10.261-10.431,16.365-14.025A93.1,93.1,0,0,1,81.754,97.2a2.062,2.062,0,0,0,1.4-2.46,2.014,2.014,0,0,0-2.46-1.4Z"/><path class="e" d="M106.276,165.754c-7.228,5.646-18.167,13.921-21.595,16.239a5.98,5.98,0,0,1-2.342.949,1.424,1.424,0,0,0,.421-1.275c-.934-5.5-2.634-15.952-4.116-24.1,14.519,2.815,30.608,5.844,30.608,5.844C108.37,164.113,107.365,164.9,106.276,165.754Z"/><path class="c" d="M137.81,156.547c.2-7.3.527-14.639,1.22-21.91a2.014,2.014,0,0,0-2-2,2.043,2.043,0,0,0-2,2c-.693,7.271-1.016,14.611-1.22,21.91-.072,2.575,3.928,2.573,4,0Z"/><path class="b" d="M116.311,158.3a109.974,109.974,0,0,0-13.877-5.021l-4.106-7.111a8.3,8.3,0,0,0-2.716-3.246,8.3,8.3,0,0,0-4.078-.772,36.547,36.547,0,0,0-14.762,2.182c.231,1.4,2.084,14,2.395,16.341,3.551,0,6.44.172,7.942.172,2.025,2.233,4.626,3.706,8.254,2.452a34.055,34.055,0,0,1,7.092,2.735l9.862,4.688"/><path class="c" d="M82.878,158.429a19.215,19.215,0,0,0,5.1,5.816,8.956,8.956,0,0,0,7.915.976H94.831a40.279,40.279,0,0,1,7.959,3.173l8.517,4.049c2.313,1.1,4.345-2.348,2.019-3.454l-8.741-4.155a42.3,42.3,0,0,0-8.258-3.368c-1.3-.306-2.374.324-3.67.283a4.711,4.711,0,0,1-2.4-.787,13.934,13.934,0,0,1-3.925-4.552c-1.376-2.167-4.839-.163-3.454,2.019Z"/><path class="c" d="M117.321,156.569a117.32,117.32,0,0,0-14.355-5.222l1.2.919-3.019-5.229a27.842,27.842,0,0,0-2.809-4.405c-2.049-2.373-4.973-2.433-7.869-2.516A44.661,44.661,0,0,0,76.24,142.4c-2.457.743-1.41,4.6,1.064,3.857a45,45,0,0,1,9.94-2.1c.964-.065,1.929-.07,2.894-.045a13.014,13.014,0,0,1,3.991.329c1.786.64,2.683,3.1,3.559,4.62l1.811,3.137c.577,1,1.075,2.393,2.164,2.91a27.961,27.961,0,0,0,3.43,1.071q1.7.544,3.384,1.146,3.457,1.235,6.825,2.7a2.065,2.065,0,0,0,2.736-.717,2.015,2.015,0,0,0-.717-2.737Z"/><path class="d" d="M107.381,152.861a94.6,94.6,0,0,1-6.159,18.237c1.483,1.4,15.993,5.48,27.388,8.125,1.855-9.2,4.6-22.8,4.6-22.8-3.243-1.168-25.687-6.841-25.473-6.5A16.374,16.374,0,0,1,107.381,152.861Z"/><path class="c" d="M123.008,97.521A102.535,102.535,0,0,1,137.7,107.05c4.408,3.542,8.643,7.714,11.187,12.833,4.739,9.535,7.041,20.421,8.773,30.861a88.71,88.71,0,0,1,1.421,12.953,33.059,33.059,0,0,1-.636,9.107,8.4,8.4,0,0,1-2.9,4.565c-2.48,1.886-5.885,2.149-9.083,2.047a68.691,68.691,0,0,1-8.056-.688c-6.653-1.039-13.244-2.61-19.774-4.231-3.617-.9-7.227-1.838-10.8-2.908-1.344-.4-2.687-.82-4-1.3-.23-.085-.46-.171-.687-.262a1.371,1.371,0,0,1-.28-.12c-.23-.109-1.04-.687-.5-.22l.313,2.424a61.24,61.24,0,0,0,4-10.2c1.258-3.793,2.74-7.948,2.786-11.992l-2,2a1.2,1.2,0,0,1,.278.037c.31.048.618.106.926.164.665.126,1.326.268,1.986.414,1.772.391,3.536.822,5.3,1.265q5.226,1.314,10.418,2.765c2.332.651,4.822,1.747,7.245,1.91,3.179.215,6.371-.044,9.552-.055,2.573-.009,2.578-4.009,0-4-3.136.011-6.433.462-9.552.055a20.2,20.2,0,0,1-2.617-.748c-1.442-.425-2.889-.833-4.338-1.234q-5.265-1.458-10.565-2.781a64.089,64.089,0,0,0-8.628-1.792,2.02,2.02,0,0,0-2,2,19.718,19.718,0,0,1-.778,4.617c-.531,2.129-1.175,4.23-1.866,6.311a56.651,56.651,0,0,1-3.593,9.243,2.033,2.033,0,0,0,.313,2.423c1.407,1.225,3.462,1.74,5.2,2.3,3.158,1.021,6.369,1.885,9.581,2.716,6.569,1.7,13.19,3.257,19.861,4.5a94.317,94.317,0,0,0,10.444,1.279c3.691.273,7.5.141,10.939-1.37,4.773-2.1,6.825-6.65,7.269-11.6a70.907,70.907,0,0,0-.619-16.156c-1.5-10.845-3.777-21.885-7.948-32.041a39.2,39.2,0,0,0-4.645-8.653,48.341,48.341,0,0,0-6.947-7.478,99.246,99.246,0,0,0-17.635-11.947c-2.254-1.248-4.274,2.2-2.019,3.453Z"/><path class="c" d="M113.283,85.817a19.647,19.647,0,0,0,8.714-5.1,40.689,40.689,0,0,0,6.191-7.541,2,2,0,1,0-3.453-2.019,34.507,34.507,0,0,1-5.412,6.586,18.414,18.414,0,0,1-3.391,2.653,15.943,15.943,0,0,1-1.873.99c-.187.082.161-.051-.162.063-.185.065-.368.136-.555.2-.369.122-.743.223-1.122.311a2,2,0,1,0,1.063,3.857Z"/><path class="c" d="M75.07,46.288a6.323,6.323,0,0,0-7.894-.411c-2.455,1.829-2.7,5.056-2.464,7.89.456,5.487,3.346,12.317,9.4,13.4a2.057,2.057,0,0,0,2.46-1.4,2.017,2.017,0,0,0-1.4-2.46c-3.9-.7-5.674-4.915-6.315-8.424a14.3,14.3,0,0,1-.2-2.788,5.5,5.5,0,0,1,.385-2.458,2.2,2.2,0,0,1,3.2-.527,2.055,2.055,0,0,0,2.829,0,2.016,2.016,0,0,0,0-2.828Z"/><path class="c" d="M72.888,61.827a33.426,33.426,0,0,0,7.126,16C84.028,82.581,89.344,86,95.6,86.68a2.013,2.013,0,0,0,2-2,2.045,2.045,0,0,0-2-2c-5.3-.573-9.731-3.987-13.021-8-3.253-3.964-4.964-8.93-5.835-13.922a2.017,2.017,0,0,0-2.46-1.4,2.044,2.044,0,0,0-1.4,2.46Z"/><path class="c" d="M92.752,17.481a8.454,8.454,0,0,1,.609,1.143c.139.292.273.586.405.881.073.163.144.326.216.49.036.084.073.169.109.254s.2.472.047.107,0-.006.028.069l.111.267c.073.178.146.357.217.536q.213.526.414,1.057c.235.617.461,1.238.654,1.87a2,2,0,0,0,3.858-1.064,45.4,45.4,0,0,0-1.627-4.276c-.3-.719-.612-1.437-.946-2.142a8.761,8.761,0,0,0-.642-1.211,2,2,0,1,0-3.453,2.019Z"/><path class="c" d="M96.188,22.983c-2.368,2.813-5.209,5.308-7.834,7.872-3.736,3.648-7.492,7.276-11.3,10.846-1.188,1.112-2.359,2.28-3.638,3.29a2.011,2.011,0,0,0,0,2.828,2.049,2.049,0,0,0,2.828,0c2.947-2.327,5.595-5.123,8.3-7.716,3.755-3.6,7.492-7.215,11.173-10.888,1.113-1.11,2.286-2.2,3.3-3.4a2.054,2.054,0,0,0,0-2.829,2.016,2.016,0,0,0-2.828,0Z"/><path class="c" d="M98.134,26.326c4.516-1.093,8.576,1.167,12.1,3.783a33.44,33.44,0,0,1,9.1,10.115,45.021,45.021,0,0,1,5.97,26.82,38.793,38.793,0,0,1-5.117,15.511c-1.292,2.232,2.163,4.248,3.454,2.019a44.357,44.357,0,0,0,4.884-31.214,50.567,50.567,0,0,0-5.431-14.62,37.689,37.689,0,0,0-10.084-11.515c-4.635-3.556-9.977-6.2-15.938-4.756-2.5.605-1.441,4.464,1.064,3.857Z"/><path class="c" d="M79.293,90.305a21.427,21.427,0,0,1-10.911-4.454c-2.992-2.547-4.2-6.509-4.523-10.327-.8-9.5,4.008-18.255,5.01-27.564.357-3.312.5-6.643.856-9.957.065-.6.126-1.207.2-1.809q.064-.556.136-1.112A2.48,2.48,0,0,1,70.1,34.8q.056-.392.114-.783a50.14,50.14,0,0,1,3.733-13.38c2.3-4.993,5.714-9.458,10.635-12.078A26.655,26.655,0,0,1,88.725,6.9c2.245-.753,4.455-1.588,6.754-2.17a32.457,32.457,0,0,1,12.57-.274c7.808,1.1,14.9,6,19.307,12.41A46.291,46.291,0,0,1,133.1,29.512,121.583,121.583,0,0,1,136.612,43.7a144.883,144.883,0,0,1,1.931,14.421c.415,4.889.856,9.971-.025,14.833C137.8,76.9,136.281,81,133.388,83.87a18.837,18.837,0,0,1-8.5,5.055,26.883,26.883,0,0,1-5.189.553c-2.566.1-2.578,4.1,0,4,3.821-.143,7.521-.618,10.879-2.566A22.958,22.958,0,0,0,139.634,82c4.8-9.089,3.5-20.049,2.289-29.864-1.261-10.257-3.329-20.738-7.323-30.314a34.8,34.8,0,0,0-18.553-19.1A30.323,30.323,0,0,0,110.015.744a54.544,54.544,0,0,0-6.3-.681c-5.091-.345-9.751.77-14.531,2.44C85.746,3.7,82.431,4.84,79.5,7.067a28.261,28.261,0,0,0-6.422,6.888,44.04,44.04,0,0,0-6.117,15.592c-.428,2.081-.742,4.183-.994,6.292-.083.689-.154,1.379-.228,2.069-.023.221-.055.443-.072.665-.034.416.078-.495.032-.228-.118.674-.195,1.359-.269,2.039-.3,2.755-.274,5.538-.639,8.287a57.457,57.457,0,0,1-1.646,7.5c-1.329,4.871-2.932,9.7-3.3,14.768A26.034,26.034,0,0,0,62.408,84.8c1.943,3.726,5.754,6.113,9.532,7.662a25.731,25.731,0,0,0,6.289,1.7,2.069,2.069,0,0,0,2.461-1.4,2.015,2.015,0,0,0-1.4-2.46Z"/><path class="e" d="M72.256,126.667c-9.13-.723-53.113-3-68.817-3.179A1.441,1.441,0,0,0,2,125.128q3.714,26.629,8.742,53.054a1.437,1.437,0,0,0,1.328,1.17c20.879,1.2,60.332,3.477,69.2,3.985a1.431,1.431,0,0,0,1.5-1.67c-2.679-15.771-8.133-47.556-9.2-53.818A1.426,1.426,0,0,0,72.256,126.667Z"/><path class="c" d="M72.256,124.667c-14.508-.556-29.01-1.344-43.513-2.029-7.7-.363-15.4-.729-23.1-1.057-2.066-.089-4.264-.313-5.324,1.909-.67,1.4-.116,3.145.092,4.613q.381,2.686.775,5.371,1.47,10.007,3.126,19.984,1.7,10.221,3.586,20.408c.53,2.852.456,7.131,4.168,7.486,1.915.183,3.857.222,5.778.333l28.131,1.621L71.836,184.8l8.223.472c1.958.113,3.926-.237,4.591-2.416a7.241,7.241,0,0,0-.218-3.224l-.507-2.979q-4.1-24.051-8.23-48.095c-.3-1.736-.886-3.487-2.907-3.815a2.062,2.062,0,0,0-2.46,1.4,2.015,2.015,0,0,0,1.4,2.46c.307.05-.084-.411-.082-.115,0,.069.043.142.036.21a2.567,2.567,0,0,0,.1.593l.251,1.467.675,3.936q.91,5.308,1.819,10.616,2.236,13.049,4.466,26.1.5,2.943,1,5.885.224,1.309.446,2.619.1.585.2,1.171a3.545,3.545,0,0,0,.108.63c.019.307.047.33.082.071.012-.237.157-.384.433-.439-.119-.226-2.551-.147-2.853-.164l-3.863-.222-23.033-1.326-27.253-1.57L18,177.694l-2.633-.152a15.137,15.137,0,0,0-2.763-.16l-.267-.015q-.311-.006.337.284c.014-.006-.2-1.045-.184-.97q-.229-1.211-.456-2.424-.454-2.424-.9-4.851-.885-4.854-1.726-9.715Q7.768,150.211,6.3,140.7q-.755-4.877-1.465-9.758-.32-2.2-.63-4.395a3.956,3.956,0,0,0-.172-1.222L4,125.085a.818.818,0,0,1-.556.4c0,.031,1.011.042,1.069.044,7.021.3,14.041.626,21.06.956,14.7.692,29.391,1.437,44.09,2.072q1.3.055,2.6.107C74.831,128.766,74.826,124.765,72.256,124.667Z"/><path class="b" d="M44.146,187.011c-.858,0-1.65-.018-2.352-.074a10.4,10.4,0,0,1-5.909-2.231c-3.345-2.5-4.426-6.4-4.774-9.063s-.887-9.15-1.054-10.865c-.087-.9.911-3.126,2.712-3.3a4.052,4.052,0,0,1,3.894,1.86l.3.4-.206-2.26c-.055-.595.078-4.061,2.782-4.429a3.617,3.617,0,0,1,4.471,3.246l.314,2.3.606-.887a3.161,3.161,0,0,1,3.479-1.253,4.3,4.3,0,0,1,2.823,3.441c.342,2.51.967,6.634,1.3,9.581,1.179-3.074,3.9-3.483,5.449-2.429,1.394.947,1.112,3.037.889,4.074a49.042,49.042,0,0,1-2.37,7.186,14.245,14.245,0,0,1-1.926,2.962c-1.037,1.112-3.7,1.63-3.7,1.63C48.484,186.9,46.139,187.009,44.146,187.011Z"/><path class="c" d="M58.425,182.839c1.043-2.848,2.353-5.725,2.6-8.785a4.752,4.752,0,0,0-5.73-5.434,5.969,5.969,0,0,0-4.136,3.067,2,2,0,0,0,3.454,2.019,5.333,5.333,0,0,1,.373-.579c-.2.267-.017.04.1-.079s.218-.205.333-.3c-.41.342.086-.015.182-.079.321-.212-.378.1.011-.015.144-.044.29-.082.434-.124.477-.136-.349-.015.027,0,.119,0,.246,0,.366,0,.381,0-.46-.139,0,.009a1.6,1.6,0,0,0,.392.119c-.252.014-.35-.17-.06,0,.066.037.13.078.193.12-.189-.154-.231-.183-.125-.085a1.578,1.578,0,0,1,.145.15q-.252-.34-.075-.071c.15.446-.106-.443.021.014a4.4,4.4,0,0,0,.117.462c.028.153.02.089-.023-.194.009.091.015.181.019.272a7.457,7.457,0,0,1-.036.921c-.033.391.088-.451,0-.06-.022.1-.037.209-.058.312a24.8,24.8,0,0,1-.651,2.489c-.507,1.622-1.155,3.2-1.74,4.791a2.011,2.011,0,0,0,1.4,2.46,2.054,2.054,0,0,0,2.461-1.4Z"/><path class="c" d="M38.39,162.329a6.446,6.446,0,0,0-4.184-2.786,5.051,5.051,0,0,0-5.065,2.076c-1.681,2.323-.9,5.266-.655,7.91a50.273,50.273,0,0,0,1.222,9.214,14.1,14.1,0,0,0,7,8.852c4.3,2.174,9.527,1.319,14.159,1.305,2.574-.008,2.579-4.008,0-4-2.416.007-4.832.135-7.249.109a10.908,10.908,0,0,1-5.187-1.024c-3.221-1.764-4.8-4.956-5.334-8.478-.4-2.695-.615-6.017-.876-8.945-.049-.548-.117-1.1-.149-1.646a1.3,1.3,0,0,1,.361-1.051c.762-.928,2.031-.132,2.5.483a2.068,2.068,0,0,0,2.737.717,2.012,2.012,0,0,0,.717-2.736Z"/><path class="c" d="M40.093,171.776c-.127-.781-.232-1.565-.34-2.348-.037-.274-.074-.549-.112-.823.063.464-.055-.417-.069-.522q-.122-.914-.239-1.827c-.145-1.126-.288-2.253-.421-3.38a11.874,11.874,0,0,1-.158-1.833c.005-.153.025-.305.035-.458-.043.672.015-.033.056-.208.053-.228.129-.444.2-.668.1-.335,0,.021-.032.078.085-.148.166-.3.252-.448.135-.229-.34.287,0,0,.071-.061.147-.143.214-.211-.321.323-.011.03.1-.04s.3-.07-.027.01a2.909,2.909,0,0,1,1.511.011c.3.085-.334-.231.106.041.1.061.2.116.294.178-.429-.275.407.524.095.082.077.109.421.8.251.362a4.673,4.673,0,0,1,.234.83c.179.956.27,1.937.4,2.9l1.039,7.628a2.012,2.012,0,0,0,2.46,1.4,2.054,2.054,0,0,0,1.4-2.46L46.3,162.435a28.726,28.726,0,0,0-.469-3.206,5.556,5.556,0,0,0-2.8-3.617,6.168,6.168,0,0,0-5.471.018,5.541,5.541,0,0,0-2.542,3.552,14.3,14.3,0,0,0,.11,5.475c.342,2.729.665,5.467,1.1,8.182a2.016,2.016,0,0,0,2.461,1.4,2.049,2.049,0,0,0,1.4-2.46Z"/><path class="c" d="M46.658,162.718c-.228.311.472-.352.133-.122.025-.017.543-.279.225-.153a3.056,3.056,0,0,1,.376-.11c-.211.013-.194.011.049,0,.1,0,.6.1.247,0,.069.018.546.217.256.071.083.042.628.431.421.249a4.3,4.3,0,0,1,.43.434c-.164-.193.224.372.266.447.172.3.03-.076.112.289.048.216.1.424.136.643.031.2.054.392.08.588q.124.919.248,1.84l.063.467c-.073-.539.025.189.038.285l.148,1.1q.154,1.145.307,2.288.261,1.938.523,3.876a2.011,2.011,0,0,0,2.46,1.4,2.054,2.054,0,0,0,1.4-2.46q-.115-.84-.227-1.681l-.077-.571c-.014-.1-.1-.782-.032-.238q-.089-.663-.178-1.324-.367-2.733-.735-5.467a10.567,10.567,0,0,0-.359-2.008,6.563,6.563,0,0,0-2.492-3.3A5.229,5.229,0,0,0,43.2,160.7a2.014,2.014,0,0,0,.717,2.736,2.046,2.046,0,0,0,2.737-.717Z"/><path class="c" d="M81.85,184.977a9.458,9.458,0,0,0,5.081-2.118c1.478-1.05,2.935-2.128,4.39-3.21q5.8-4.314,11.528-8.735a2.067,2.067,0,0,0,.718-2.736,2.013,2.013,0,0,0-2.736-.718q-5.493,4.224-11.042,8.373c-1.422,1.059-2.847,2.114-4.286,3.149-1.054.758-2.306,1.929-3.653,2-2.562.126-2.577,4.127,0,4Z"/><path class="f" d="M58.381,436.176q-.165-.216-.312-.446a8.359,8.359,0,0,1-.554-7.006,22.942,22.942,0,0,1,3.6-6.273q5.2-7.109,11-13.756c1.506-1.728,3.209-3.528,5.461-3.953a3.387,3.387,0,0,0,1.684,3.552,7.93,7.93,0,0,0,4.061.917A22.543,22.543,0,0,0,99.1,402.932c-.026,4.746.021,6.326,0,11.074a9.945,9.945,0,0,1-.416,3.424c-.976,2.639-3.869,3.91-6.191,5.5-6.041,4.134-9.222,11.675-15.552,15.351a16.341,16.341,0,0,1-15.108.541A9.531,9.531,0,0,1,58.381,436.176Z"/><path class="f" d="M147.841,436.176q.165-.216.312-.446a8.362,8.362,0,0,0,.553-7.006,22.939,22.939,0,0,0-3.595-6.273q-5.2-7.109-11-13.756c-1.507-1.728-3.209-3.528-5.462-3.953a3.386,3.386,0,0,1-1.683,3.552,7.936,7.936,0,0,1-4.062.917,22.54,22.54,0,0,1-15.777-6.279c.026,4.746-.021,6.326,0,11.074a9.993,9.993,0,0,0,.416,3.424c.976,2.639,3.87,3.91,6.192,5.5,6.04,4.134,9.222,11.675,15.552,15.351a16.339,16.339,0,0,0,15.107.541A9.526,9.526,0,0,0,147.841,436.176Z"/><path class="c" d="M60.108,435.166c-1.631-2.229-1.232-5.047-.048-7.4a52.076,52.076,0,0,1,5.49-7.93q3.032-3.954,6.267-7.746c1.712-2.014,3.553-4.809,6.287-5.424l-2.46-2.46a5.561,5.561,0,0,0,3.349,6.187c2.6,1.169,5.748.918,8.492.486a24.229,24.229,0,0,0,13.024-6.536L97.1,402.932c-.021,4.045.156,8.121-.02,12.162-.088,2.007-1.12,3.183-2.726,4.265a56.886,56.886,0,0,0-4.73,3.256c-5.789,4.806-9.177,13.167-16.925,15.284-4.26,1.164-9.959.484-12.9-3.137a2.011,2.011,0,0,0-2.828,0,2.046,2.046,0,0,0,0,2.828c2.981,3.672,8.532,5.113,13.085,4.78a19.408,19.408,0,0,0,12.29-5.788c3.069-3.008,5.432-6.646,8.488-9.667a30.38,30.38,0,0,1,5.087-3.805,11.178,11.178,0,0,0,4.356-4.348c1.2-2.574.832-5.685.826-8.451-.005-2.459-.017-4.919,0-7.379a2.023,2.023,0,0,0-3.415-1.414,20.231,20.231,0,0,1-8.821,4.983,19.44,19.44,0,0,1-5.753.7c-.946-.027-3.926-.279-3.6-1.931a2.028,2.028,0,0,0-2.46-2.461c-3.455.777-5.719,3.713-7.9,6.271q-3.8,4.455-7.336,9.115c-3.858,5.059-9.873,12.536-5.153,18.986a2.059,2.059,0,0,0,2.736.718A2.016,2.016,0,0,0,60.108,435.166Z"/><path class="c" d="M149.568,437.185c4.721-6.451-1.3-13.928-5.153-18.986q-3.549-4.651-7.336-9.115c-2.179-2.558-4.443-5.494-7.9-6.271a2.028,2.028,0,0,0-2.46,2.461c.3,1.572-2.456,1.885-3.394,1.926a19.34,19.34,0,0,1-5.964-.7,20.235,20.235,0,0,1-8.822-4.983,2.022,2.022,0,0,0-3.414,1.414c.011,2.231.005,4.462,0,6.693a44.024,44.024,0,0,0,.183,7.081c.773,4.787,5.508,6.194,8.745,8.972,3.269,2.806,5.668,6.433,8.562,9.592,3.077,3.357,6.853,6.048,11.422,6.835,5.17.89,11.735-.225,15.218-4.515a2.059,2.059,0,0,0,0-2.828,2.014,2.014,0,0,0-2.828,0c-2.551,3.141-7.352,4.09-11.193,3.508-4-.607-7.119-2.91-9.79-5.828-2.609-2.85-4.81-6.066-7.617-8.736a29.452,29.452,0,0,0-4.739-3.567c-1.321-.826-2.968-1.735-3.616-3.241a9.939,9.939,0,0,1-.348-3.831q-.006-1.722,0-3.442c.007-2.231.013-4.462,0-6.693l-3.414,1.415a24.23,24.23,0,0,0,13.023,6.536c2.665.419,5.7.668,8.253-.385a5.6,5.6,0,0,0,3.589-6.288l-2.46,2.46c2.669.6,4.457,3.275,6.133,5.243q3.307,3.882,6.421,7.927a54.3,54.3,0,0,1,5.392,7.741c1.242,2.4,1.735,5.283.05,7.585a2.016,2.016,0,0,0,.717,2.737A2.047,2.047,0,0,0,149.568,437.185Z"/><path class="c" d="M97.067,71.333a12.094,12.094,0,0,0,5.82,1.358,9.586,9.586,0,0,0,5.984-1.813,2,2,0,0,0,0-2.828,2.062,2.062,0,0,0-2.828,0c.691-.538-.025-.012-.243.1-.169.088-.622.229.008.015-.158.054-.312.121-.472.172-.425.137-.911.15-1.322.3.211-.078.323-.039.024-.009-.13.012-.26.023-.39.032-.312.02-.626.028-.939.026-.281,0-.561-.011-.841-.03-.129-.009-.257-.019-.385-.032-.074-.007-.147-.016-.22-.025q-.236-.029.183.025c-.049.05-.552-.1-.633-.118q-.3-.067-.6-.156c-.173-.052-.341-.114-.512-.173-.449-.153.421.2.014.01q-.318-.15-.628-.313a2,2,0,1,0-2.018,3.454Z"/><path class="c" d="M101.614,57.953a26.035,26.035,0,0,1,.612,2.8l-.072-.532a1.663,1.663,0,0,1,.011.386l.071-.531a.929.929,0,0,1-.042.173l.2-.477a.707.707,0,0,1-.061.111l.313-.4a.653.653,0,0,1-.092.09l.4-.313a1.867,1.867,0,0,1-.221.117l.477-.2a1.625,1.625,0,0,1-.373.108l.532-.071a1.472,1.472,0,0,1-.351,0l.532.072c-.133-.019-.262-.051-.394-.069a1.515,1.515,0,0,0-.8-.035,1.492,1.492,0,0,0-.744.237,2,2,0,0,0-.717,2.736,1.915,1.915,0,0,0,1.195.92c.351.047.692.135,1.049.15a3.441,3.441,0,0,0,1.61-.392,2.446,2.446,0,0,0,1.32-1.6,3.776,3.776,0,0,0-.013-1.659c-.153-.9-.361-1.794-.593-2.678a2,2,0,0,0-2.46-1.4,2.025,2.025,0,0,0-1.195.919,2.1,2.1,0,0,0-.2,1.541Z"/><path class="c" d="M87.367,49.88C86.9,51.4,87.2,54.891,90.08,55.188c3.8-.023,4-4.245,2.725-6.231C91.757,47.332,88.676,46.656,87.367,49.88Z"/><path class="c" d="M117.81,49.88c.467,1.518.163,5.011-2.713,5.308-3.8-.023-4-4.245-2.725-6.231C113.42,47.332,116.5,46.656,117.81,49.88Z"/></svg>